<svg xmlns="http://www.w3.org/2000/svg" viewBox="0 0 80 80" fill="none">
  <defs>
    <linearGradient id="career_bg" x1="0%" y1="0%" x2="100%" y2="100%">
      <stop offset="0%" stop-color="#64B5F6"/>
      <stop offset="100%" stop-color="#42A5F5"/>
    </linearGradient>
    <linearGradient id="briefcase" x1="0%" y1="0%" x2="0%" y2="100%">
      <stop offset="0%" stop-color="#5D4037"/>
      <stop offset="100%" stop-color="#4E342E"/>
    </linearGradient>
  </defs>
  <circle cx="40" cy="40" r="38" fill="url(#career_bg)"/>
  <circle cx="40" cy="40" r="35" fill="#FFF" fill-opacity="0.15"/>
  <rect x="18" y="30" width="44" height="32" rx="4" fill="url(#briefcase)"/>
  <rect x="22" y="34" width="36" height="24" rx="2" fill="#8D6E63"/>
  <path d="M32 30 L32 24 Q32 20 36 20 L44 20 Q48 20 48 24 L48 30" stroke="url(#briefcase)" stroke-width="4" fill="none"/>
  <rect x="36" y="40" width="8" height="10" rx="2" fill="#FFD54F"/>
  <circle cx="40" cy="44" r="2" fill="#5D4037"/>
  <path d="M14 18 L16 22 L14 20 L12 22 Z" fill="#FFF"/>
  <path d="M66 16 L68 20 L66 18 L64 20 Z" fill="#FFF"/>
  <circle cx="20" cy="58" r="2" fill="#FFF" fill-opacity="0.6"/>
  <circle cx="60" cy="56" r="2" fill="#FFF" fill-opacity="0.6"/>
  <path d="M60 24 L64 20 L68 24" stroke="#FFD54F" stroke-width="2" stroke-linecap="round" fill="none"/>
  <path d="M64 20 L64 12" stroke="#FFD54F" stroke-width="2" stroke-linecap="round"/>
</svg>
