<svg xmlns="http://www.w3.org/2000/svg" viewBox="0 0 80 80" fill="none">
  <defs>
    <linearGradient id="love_bg" x1="0%" y1="0%" x2="100%" y2="100%">
      <stop offset="0%" stop-color="#F48FB1"/>
      <stop offset="100%" stop-color="#EC407A"/>
    </linearGradient>
    <linearGradient id="heart" x1="0%" y1="0%" x2="0%" y2="100%">
      <stop offset="0%" stop-color="#FF6B9D"/>
      <stop offset="100%" stop-color="#E91E63"/>
    </linearGradient>
  </defs>
  <circle cx="40" cy="40" r="38" fill="url(#love_bg)"/>
  <circle cx="40" cy="40" r="35" fill="#FFF" fill-opacity="0.15"/>
  <path d="M40 62 L22 44 Q14 36 22 28 Q30 20 40 32 Q50 20 58 28 Q66 36 58 44 Z" fill="url(#heart)"/>
  <path d="M40 56 L26 42 Q20 36 26 30 Q32 24 40 34" fill="#FF8A80" fill-opacity="0.5"/>
  <circle cx="30" cy="32" r="3" fill="#FFF" fill-opacity="0.6"/>
  <path d="M16 20 L18 24 L16 22 L14 24 Z" fill="#FFF"/>
  <path d="M64 18 L66 22 L64 20 L62 22 Z" fill="#FFF"/>
  <path d="M12 50 L14 54 L12 52 L10 54 Z" fill="#FFF"/>
  <path d="M68 48 L70 52 L68 50 L66 52 Z" fill="#FFF"/>
  <circle cx="20" cy="36" r="2" fill="#FFF" fill-opacity="0.6"/>
  <circle cx="60" cy="36" r="2" fill="#FFF" fill-opacity="0.6"/>
  <circle cx="40" cy="16" r="3" fill="#FCE4EC"/>
  <circle cx="26" cy="60" r="2" fill="#FCE4EC"/>
  <circle cx="54" cy="60" r="2" fill="#FCE4EC"/>
</svg>
